<svg width="60" height="57" viewBox="0 0 60 57" fill="none" xmlns="http://www.w3.org/2000/svg">
<path d="M59.2099 35.5L58.6499 33.6C58.4499 32.91 58.2999 32.2 58.1899 31.49L58.0199 28.95C58.0199 28.78 58.0399 28.61 58.0399 28.44C53.7299 29.58 47.2699 31.59 42.4999 34.41C34.3199 39.25 33.1299 41.81 32.4199 44.65C31.6099 47.91 27.2899 53.79 25.6699 55.91C27.4699 56.33 29.3099 56.55 31.1599 56.55H39.2299L41.6899 55.43L48.0499 56.55H52.8199C56.5199 56.55 59.5199 53.55 59.5199 49.85V40.24C59.2399 38.68 59.1699 37.09 59.1999 35.51L59.2099 35.5ZM56.3399 42.06C56.3299 43.43 55.5899 44.57 54.5199 45.27C57.2199 48.1 52.5499 52.22 50.3099 48.69C48.1899 54.81 39.6699 49.33 44.4099 45C37.4599 40.7 48.9299 31.97 50.6799 40.66C52.3799 37.56 56.6899 38.6 56.3299 42.06H56.3399Z" fill="#00B7CE"/>
<path d="M49.2701 42.9C47.0301 42.87 47.0301 46.38 49.2701 46.35C51.5101 46.38 51.5101 42.87 49.2701 42.9Z" fill="#00B7CE"/>
<path d="M21.9001 5.86999C21.6401 8.84999 26.1001 9.31999 26.2801 6.32999C26.5401 3.34999 22.0801 2.87999 21.9001 5.86999Z" fill="#00B7CE"/>
<path d="M37.63 12.38C33.32 12.65 35.12 9.38 37.08 9.49C39.05 9.6 42.65 6.76 44.29 8.45C44.68 8.86 45.09 9.15 45.49 9.36C47.62 6.16 49.64 2.67 51.1 0H42.38L37.7 0.81C36.51 1.02 35.29 0.98 34.12 0.69C32.23 0.23 30.3 0 28.36 0H28.26C28.79 0.84 28.95 2.07 28.45 3.75C34.68 5.5 29.67 15.43 25.21 10.43C25.52 14.07 19.84 14.61 19 11.41C18.59 10.21 18.15 8.72 18.73 7.63C14.31 6.01 16.07 0.11 20.59 2.66C20.31 1.6 20.65 0.69 21.32 0H20.28L17.51 0.44C15.53 1.06 13.06 0.44 9.39 0H6.69C3 0 0 3 0 6.7V14.96C4.83 16.06 15.32 18.23 21.51 17.79C22.21 17.74 22.89 17.73 23.58 17.71L26.28 17.12H30.48L31.58 17.67C36.03 17.55 39.85 16.82 42.64 13.3C42.88 13 43.13 12.66 43.37 12.34C40.67 11.92 41.09 12.15 37.62 12.37L37.63 12.38ZM12.83 7.76C12.24 8.66 11.86 12.47 10.06 11.72C9.16 11.13 5.35 10.75 6.1 8.95C6.69 8.05 7.07 4.24 8.87 4.99C9.77 5.58 13.58 5.96 12.83 7.76Z" fill="#00B7CE"/>
<path d="M10.8599 51.68C12.0299 49.79 9.18991 47.6 8.07991 49.53C6.90991 51.42 9.74991 53.61 10.8599 51.68Z" fill="#00ACCC"/>
<path d="M32.64 36.2L27.61 35.43C26.99 35.54 25.36 35.8 23.07 35.85C24.17 36.55 24.96 37.75 24.93 39.46C25.01 45.26 15.9 45.26 15.98 39.46C15.95 37.57 16.9 36.31 18.19 35.65C17.56 35.58 16.9 35.5 16.23 35.39C14.23 35.07 11.83 34.41 9.45 33.66L8.93 34.07L6.95 33.19L6.41 32.65C4.43 31.95 2.6 31.25 1.2 30.7C1.18 30.81 1.18 30.93 1.16 31.04L0 36.33L0.77 45.26C0.94 47.24 0.75 49.24 0.2 51.16L0.17 51.28C0.71 53.72 2.58 55.65 4.98 56.3C3.93 55.06 3.53 53.35 4.67 51.6C-0.75 48.18 6.81 40.16 9.64 46.17C10.37 42.63 15.07 43.22 15.81 46.99C16.23 48.46 15.85 49.78 14.99 50.66C18.63 53.37 15.21 58.37 11.82 54.85C11.8 55.53 11.68 56.09 11.48 56.55H17.15L21.42 55.81L22.98 54.71C24.73 52.46 28.98 46.61 29.64 43.96C30.2 41.72 31.09 39.8 33.13 37.73C33.65 37.2 33.37 36.32 32.64 36.21V36.2Z" fill="#00ACCC"/>
<path d="M14.34 25.37C16.29 24.36 14.82 21.41 12.9 22.48C10.95 23.49 12.42 26.44 14.34 25.37Z" fill="#3EC2CF"/>
<path d="M14.3699 20.4C14.3699 20.4 14.3799 20.39 14.3899 20.38H14.3699C14.3699 20.38 14.3699 20.39 14.3699 20.4Z" fill="#3EC2CF"/>
<path d="M59.3599 5.26999C58.7999 2.72999 56.7999 0.739993 54.2699 0.179993C53.1399 2.27999 51.5299 5.15999 49.7199 8.06999L47.4899 11.51C47.2799 11.82 47.0699 12.11 46.8599 12.41C47.5499 12.33 48.3199 12.55 49.0799 13.29C48.8099 10.85 53.0899 10.44 53.7499 12.57C54.0699 13.37 54.4199 14.37 53.9899 15.11C57.3399 16.16 56.0699 20.13 52.6399 18.46C53.6499 21.66 45.0599 22.99 46.6999 17.8C45.2099 17.45 44.5599 16.54 44.4699 15.56C41.2399 19.28 37.0399 20.26 32.6399 20.49L31.2099 21.18L29.0399 20.56C28.5799 20.56 28.1199 20.56 27.6699 20.55C25.7099 20.53 23.6899 20.51 21.6899 20.65C21.0799 20.69 20.4399 20.71 19.7799 20.71C19.1799 20.71 18.5499 20.69 17.9099 20.66C19.5099 22.07 20.1699 24.73 16.7699 25.7C18.1399 30.25 10.0199 31.05 11.3599 26.32C9.2299 27.94 6.6599 24.64 8.3099 22.86C8.8899 22.13 9.6399 21.28 10.5499 21.21C10.4399 20.72 10.4499 20.29 10.5299 19.9C6.5899 19.31 2.7699 18.53 0.149902 17.94C0.169902 18.2 0.209902 18.45 0.229902 18.7L0.339902 21.15L0.869902 22.94C1.1099 23.77 1.2699 24.61 1.3799 25.46C1.3799 25.46 1.4399 26.47 1.4199 27.69C4.7699 29.03 12.0399 31.82 16.6799 32.56C17.9299 32.76 19.0999 32.87 20.1899 32.93L22.1199 32.19L25.1399 32.85C26.4599 32.73 27.2499 32.57 27.2699 32.57L27.5299 32.51L37.6799 34.06C38.1299 33.76 38.5899 33.45 39.0799 33.14L39.9799 32.58C39.9799 32.58 39.9799 32.58 39.9899 32.58C39.6599 31.72 39.1599 30.83 38.7599 30.19C33.7899 31.6 30.2599 26.86 29.5199 25.76C29.4399 25.65 29.5099 25.49 29.6399 25.45C36.1499 23.41 39.7199 29.84 39.7199 29.84L40.7199 32.13C40.8299 32.07 40.9299 32 41.0399 31.94C41.4799 31.68 41.9499 31.44 42.4099 31.19L45.4599 29.69C50.0899 27.64 55.0999 26.2 58.3999 25.38L58.7299 23.89L58.7599 11.29C58.5899 9.30999 58.7799 7.30999 59.3299 5.38999L59.3599 5.26999ZM40.0399 28.79C40.0399 28.79 38.5699 26.68 36.8499 25.63C36.7499 25.57 36.6999 25.47 36.7099 25.35C36.7799 24.79 37.1599 23.02 39.0899 21.26C39.1699 21.19 39.2899 21.19 39.3599 21.26C39.9299 21.88 42.0699 24.61 40.0299 28.78L40.0399 28.79Z" fill="#3EC2CF"/>
<path d="M51.3598 15.84C50.9798 13.98 48.1498 14.7 48.5898 16.55C48.9698 18.41 51.7998 17.69 51.3598 15.84Z" fill="#3EC2CF"/>
</svg>
