<svg width="171" height="58" viewBox="0 0 171 58" fill="none" xmlns="http://www.w3.org/2000/svg">
<path d="M60.7299 36.3999L60.1599 34.45C59.9499 33.74 59.7999 33.0199 59.6799 32.2899L59.4999 29.6899C59.4999 29.5099 59.5198 29.3399 59.5298 29.1599C55.1098 30.3299 48.4799 32.3899 43.5999 35.2799C35.2099 40.2499 33.9899 42.8699 33.2599 45.7799C32.4299 49.1299 27.9998 55.1499 26.3398 57.3199C28.1898 57.7499 30.0798 57.98 31.9698 57.98H40.2499L42.7698 56.83L49.2899 57.98H54.1799C57.9799 57.98 61.0499 54.9 61.0499 51.11V41.25C60.7699 39.65 60.6898 38.0199 60.7198 36.3999H60.7299ZM57.7899 43.1299C57.7799 44.5299 57.0199 45.7099 55.9299 46.4199C58.6999 49.3199 53.9099 53.5499 51.6099 49.9299C49.4299 56.2099 40.6899 50.5899 45.5599 46.1399C38.4399 41.7299 50.1999 32.7799 51.9999 41.6899C53.7499 38.5099 58.1699 39.5699 57.7999 43.1299H57.7899Z" fill="#00B7CE"/>
<path d="M50.54 43.9899C48.25 43.9599 48.25 47.5598 50.54 47.5298C52.83 47.5598 52.83 43.9599 50.54 43.9899Z" fill="#00B7CE"/>
<path d="M22.47 6.00984C22.2 9.06984 26.78 9.54994 26.96 6.47994C27.23 3.41994 22.65 2.94984 22.47 6.00984Z" fill="#00B7CE"/>
<path d="M38.6 12.6899C34.18 12.9699 36.02 9.60997 38.04 9.71997C40.06 9.82997 43.7501 6.91991 45.4301 8.65991C45.8301 9.07991 46.25 9.36998 46.66 9.59998C48.85 6.31998 50.92 2.73 52.42 0H43.48L38.6801 0.829956C37.4601 1.03996 36.2101 0.999961 35.0101 0.709961C33.0801 0.239961 31.09 0 29.1 0H29.0001C29.5501 0.86 29.7101 2.11998 29.1901 3.84998C35.5801 5.64998 30.44 15.83 25.86 10.7C26.18 14.43 20.3501 14.98 19.4901 11.71C19.0701 10.48 18.62 8.94996 19.22 7.82996C14.69 6.16996 16.5001 0.119981 21.1301 2.72998C20.8401 1.64998 21.1901 0.71 21.8801 0H20.8201L17.98 0.459961C15.95 1.08996 13.42 0.46 9.66003 0H6.89008C3.10008 0 0.0200195 3.08 0.0200195 6.87V15.34C4.98002 16.47 15.7401 18.69 22.0801 18.24C22.7901 18.19 23.5 18.1799 24.21 18.1599L26.98 17.5599H31.29L32.42 18.12C36.99 17.99 40.9 17.2499 43.77 13.6399C44.02 13.3299 44.27 12.9899 44.52 12.6599C41.75 12.2299 42.1801 12.4699 38.6301 12.6899H38.6ZM13.16 7.93994C12.56 8.85994 12.1601 12.77 10.3201 12C9.40007 11.4 5.49007 10.9999 6.26007 9.15991C6.86007 8.23991 7.26004 4.32998 9.10004 5.09998C10.02 5.69998 13.93 6.09994 13.16 7.93994Z" fill="#00B7CE"/>
<path d="M11.1401 52.99C12.3401 51.05 9.43005 48.7999 8.28005 50.7799C7.08005 52.7199 9.99009 54.97 11.1401 52.99Z" fill="#00ACCD"/>
<path d="M33.48 37.12L28.32 36.33C27.68 36.45 26.01 36.7099 23.66 36.7599C24.79 37.4799 25.6 38.7 25.57 40.46C25.66 46.41 16.31 46.41 16.39 40.46C16.36 38.53 17.34 37.2299 18.65 36.5499C18 36.4799 17.33 36.3899 16.64 36.2799C14.59 35.9499 12.13 35.28 9.69 34.5L9.14996 34.9199L7.12 34.0099L6.57001 33.46C4.54001 32.75 2.66998 32.03 1.22998 31.46C1.20998 31.57 1.21 31.6899 1.19 31.8099L0 37.24L0.789978 46.3999C0.969978 48.4399 0.770012 50.49 0.200012 52.45L0.159973 52.5699C0.709973 55.0799 2.63998 57.05 5.09998 57.72C4.02998 56.45 3.60998 54.6999 4.78998 52.8999C-0.770022 49.3899 6.98 41.17 9.88 47.33C10.63 43.7 15.45 44.3099 16.21 48.1699C16.64 49.6799 16.26 51.0299 15.37 51.9299C19.1 54.7099 15.6 59.83 12.12 56.23C12.1 56.93 11.97 57.5 11.77 57.97H17.58L21.96 57.21L23.56 56.08C25.35 53.77 29.72 47.7699 30.39 45.0599C30.96 42.7599 31.87 40.7999 33.97 38.6699C34.5 38.1299 34.22 37.22 33.47 37.11L33.48 37.12Z" fill="#00ACCD"/>
<path d="M14.7098 26.0099C16.7098 24.9799 15.1999 21.95 13.2299 23.04C11.2299 24.08 12.7298 27.0999 14.7098 26.0099Z" fill="#3EC2CF"/>
<path d="M14.74 20.9199C14.74 20.9199 14.75 20.9099 14.76 20.8999C14.76 20.8999 14.74 20.8999 14.73 20.8999C14.73 20.8999 14.73 20.9099 14.73 20.9199H14.74Z" fill="#3EC2CF"/>
<path d="M60.89 5.38989C60.32 2.78989 58.2699 0.749922 55.6699 0.169922C54.5099 2.31992 52.8599 5.26989 51.0099 8.25989L48.7299 11.7899C48.5199 12.1099 48.3 12.41 48.08 12.72C48.79 12.63 49.5799 12.86 50.3599 13.62C50.0799 11.12 54.4699 10.6899 55.1499 12.8799C55.4799 13.6999 55.8299 14.72 55.3999 15.48C58.8299 16.55 57.5399 20.6299 54.0199 18.9199C55.0599 22.1999 46.2499 23.57 47.9299 18.25C46.3999 17.89 45.74 16.96 45.64 15.95C42.33 19.76 38.02 20.77 33.5099 21L32.0499 21.7L29.8199 21.0699C29.3499 21.0699 28.8799 21.0699 28.4099 21.0599C26.3999 21.0399 24.3299 21.0099 22.2799 21.1599C21.6599 21.1999 20.9999 21.22 20.3199 21.22C19.6999 21.22 19.0599 21.1999 18.3999 21.1699C20.0399 22.6099 20.7099 25.35 17.2299 26.33C18.6299 30.99 10.2999 31.82 11.6799 26.97C9.49993 28.63 6.85993 25.2399 8.54993 23.4299C9.14993 22.6899 9.9199 21.81 10.8399 21.73C10.7299 21.23 10.7399 20.7799 10.8199 20.3799C6.77995 19.7799 2.86992 18.98 0.169922 18.37C0.189922 18.63 0.229939 18.8899 0.249939 19.1499L0.359924 21.6599L0.899902 23.5C1.1499 24.35 1.30992 25.21 1.41992 26.08C1.41992 26.08 1.4799 27.12 1.4599 28.36C4.8899 29.74 12.3599 32.59 17.1099 33.35C18.3899 33.55 19.5899 33.67 20.7099 33.73L22.6899 32.97L25.7899 33.6499C27.1499 33.5299 27.9499 33.36 27.9699 33.36L28.2299 33.2999L38.64 34.8899C39.1 34.5799 39.58 34.2699 40.08 33.9399L40.9999 33.36C40.9999 33.36 41 33.36 41.0099 33.36C40.6699 32.48 40.1599 31.5699 39.7499 30.9099C34.6599 32.3599 31.0299 27.49 30.2799 26.37C30.1999 26.25 30.2699 26.0999 30.3999 26.0599C37.0799 23.9699 40.7399 30.5599 40.7399 30.5599L41.7699 32.9099C41.8799 32.8399 41.9799 32.78 42.0999 32.71C42.5499 32.44 43.0299 32.1999 43.5099 31.9399L46.6299 30.3999C51.3799 28.2999 56.5099 26.83 59.8999 25.97L60.2399 24.4399L60.2799 11.5199C60.0999 9.4799 60.2999 7.42997 60.8699 5.46997L60.9099 5.34998L60.89 5.38989ZM41.0699 29.5099C41.0699 29.5099 39.5599 27.3499 37.7999 26.2599C37.6999 26.1999 37.6399 26.09 37.6599 25.97C37.7299 25.39 38.1199 23.5799 40.0999 21.7799C40.1799 21.7099 40.2999 21.7099 40.3799 21.7799C40.9599 22.4099 43.1599 25.21 41.0699 29.5V29.5099Z" fill="#3EC2CF"/>
<path d="M52.6798 16.24C52.2898 14.33 49.3898 15.07 49.8398 16.96C50.2298 18.87 53.1298 18.13 52.6798 16.24Z" fill="#3EC2CF"/>
<path d="M74.7701 26.4199C74.6001 26.4199 74.4501 26.36 74.3301 26.24C74.2101 26.12 74.1401 25.98 74.1401 25.83C74.1401 25.67 74.2001 25.5299 74.3301 25.4199C74.4501 25.3099 74.6001 25.25 74.7701 25.25H78.0401V23.8099H77.9601C77.0401 23.8099 76.3301 23.5299 75.8401 23.0099C75.3501 22.4799 75.1101 21.71 75.1101 20.7C75.1201 19.71 75.3701 18.9499 75.8501 18.4199C76.3301 17.8899 77.0401 17.63 77.9601 17.62H79.3801C80.2901 17.62 81.0001 17.91 81.4901 18.45C81.9801 18.99 82.2301 19.7599 82.2101 20.7699C82.2001 21.7699 81.9501 22.5299 81.4501 23.0599C80.9601 23.5799 80.2701 23.84 79.3901 23.83V25.2699H83.1101C83.2801 25.2699 83.4301 25.3299 83.5601 25.4399C83.6901 25.5499 83.7501 25.69 83.7501 25.85C83.7501 26 83.6901 26.1399 83.5601 26.2599C83.4301 26.3799 83.2801 26.4399 83.1101 26.4399H74.7701V26.4199ZM74.9301 17.1799C74.7601 17.1799 74.6101 17.12 74.4801 17C74.3501 16.88 74.2901 16.74 74.2901 16.58C74.2901 16.42 74.3501 16.2799 74.4801 16.1699C74.6101 16.0599 74.7601 16 74.9301 16H77.9901V15.1C77.9901 14.93 78.0601 14.7799 78.2001 14.6499C78.3401 14.5299 78.5001 14.47 78.6701 14.47C78.8601 14.47 79.0301 14.5299 79.1601 14.6499C79.2901 14.7699 79.3601 14.92 79.3601 15.1V16H82.4201C82.6001 16 82.7601 16.0599 82.8801 16.1699C83.0001 16.2799 83.0701 16.42 83.0701 16.58C83.0701 16.74 83.0101 16.88 82.8801 17C82.7601 17.12 82.6001 17.1799 82.4201 17.1799H74.9301ZM77.9601 18.7699C77.8201 18.7699 77.6601 18.79 77.4901 18.83C77.3101 18.87 77.1501 18.96 77.0001 19.09C76.8401 19.22 76.7101 19.4199 76.6101 19.6699C76.5101 19.9299 76.4601 20.27 76.4601 20.7C76.4601 21.13 76.5101 21.46 76.6101 21.72C76.7101 21.98 76.8401 22.1799 77.0001 22.3099C77.1501 22.4399 77.3101 22.5299 77.4901 22.5699C77.6701 22.6099 77.8301 22.6399 77.9601 22.6499H79.3601C79.5101 22.6499 79.6701 22.6299 79.8501 22.5699C80.0301 22.5199 80.2001 22.4299 80.3601 22.2899C80.5001 22.1599 80.6201 21.96 80.7301 21.71C80.8401 21.45 80.8901 21.13 80.8901 20.73C80.8901 20.29 80.8401 19.9399 80.7301 19.6799C80.6201 19.4199 80.4901 19.22 80.3401 19.09C80.1801 18.96 80.0101 18.87 79.8301 18.83C79.6501 18.79 79.4901 18.7699 79.3601 18.7699H77.9601ZM85.6701 21.5V27.0199C85.6701 27.1999 85.6001 27.36 85.4601 27.48C85.3201 27.6 85.1601 27.6599 84.9801 27.6599C84.7901 27.6599 84.6301 27.6 84.5001 27.48C84.3701 27.36 84.3101 27.1999 84.3101 27.0199V15.6899C84.3101 15.5099 84.3701 15.36 84.5001 15.24C84.6301 15.12 84.7901 15.0599 84.9801 15.0599C85.1601 15.0599 85.3201 15.12 85.4601 15.24C85.6001 15.36 85.6701 15.5099 85.6701 15.6899V20.3199H86.9901C87.1601 20.3199 87.3101 20.38 87.4401 20.5C87.5701 20.62 87.6301 20.7599 87.6301 20.9099C87.6301 21.0699 87.5701 21.2099 87.4401 21.3199C87.3101 21.4299 87.1601 21.49 86.9901 21.49H85.6701V21.5Z" fill="#374F5A"/>
<path d="M95.29 19.5499L92.17 22.1C92.03 22.21 91.8701 22.2699 91.6801 22.2599C91.4901 22.2599 91.34 22.21 91.22 22.11C91.09 21.99 91.03 21.8299 91.03 21.6399C91.03 21.4499 91.12 21.2899 91.28 21.1399L94.61 18.3799V16.49H91.6801C91.5101 16.49 91.3601 16.4299 91.2401 16.3199C91.1201 16.2099 91.0601 16.0599 91.0601 15.8899C91.0601 15.7399 91.1201 15.6 91.2401 15.48C91.3601 15.36 91.5101 15.2999 91.6801 15.2999H98.91C99.08 15.2999 99.23 15.36 99.36 15.48C99.49 15.6 99.55 15.7299 99.55 15.8899C99.55 16.0599 99.49 16.2099 99.36 16.3199C99.23 16.4299 99.08 16.49 98.91 16.49H95.98V18.3899L99.3801 21.0299C99.5101 21.1399 99.5701 21.29 99.5601 21.47C99.5601 21.65 99.49 21.7999 99.36 21.9199C99.22 22.0399 99.0601 22.1 98.8701 22.08C98.6801 22.07 98.5001 21.99 98.3301 21.86L95.29 19.5399V19.5499ZM98.0601 27.8999C97.4501 27.8999 96.8401 27.8599 96.2501 27.7699C95.6501 27.6799 95.12 27.5299 94.65 27.2999C94.18 27.0799 93.7901 26.77 93.5001 26.37C93.2001 25.98 93.0601 25.47 93.0601 24.86V23.7699C93.0601 23.5899 93.1201 23.4299 93.2501 23.3099C93.3801 23.1899 93.54 23.1299 93.73 23.1299C93.92 23.1299 94.09 23.1899 94.22 23.3099C94.35 23.4299 94.42 23.5899 94.42 23.7699V24.86C94.42 25.21 94.52 25.5 94.71 25.74C94.9 25.98 95.17 26.1699 95.52 26.3199C95.85 26.4599 96.2401 26.5699 96.6801 26.6299C97.1201 26.6899 97.5801 26.72 98.0601 26.72C98.2601 26.72 98.5301 26.6999 98.8701 26.6699C99.2101 26.6299 99.56 26.57 99.92 26.48C100.28 26.38 100.64 26.25 101 26.1C101.35 25.95 101.65 25.7699 101.89 25.5599C102.01 25.4499 102.16 25.38 102.33 25.37C102.51 25.36 102.66 25.3999 102.79 25.5199C102.92 25.6299 102.99 25.7699 103.02 25.9299C103.04 26.0899 102.99 26.23 102.88 26.35C102.53 26.72 102.09 27.01 101.58 27.22C101.06 27.43 100.57 27.59 100.08 27.7C99.6001 27.8 99.16 27.8599 98.78 27.8799C98.39 27.8999 98.1601 27.9099 98.0701 27.9099L98.0601 27.8999ZM102.18 23.5599C101.99 23.5599 101.82 23.4999 101.69 23.3799C101.56 23.2599 101.49 23.1099 101.49 22.9299V18.9099H98.5601C98.4001 18.9099 98.2501 18.85 98.1201 18.73C97.9901 18.61 97.9301 18.4799 97.9301 18.3199C97.9301 18.1499 97.9901 17.9999 98.1201 17.8899C98.2501 17.7799 98.3901 17.72 98.5601 17.72H101.49V15.7C101.49 15.52 101.56 15.36 101.69 15.24C101.82 15.12 101.99 15.0599 102.18 15.0599C102.36 15.0599 102.52 15.12 102.65 15.24C102.78 15.36 102.84 15.52 102.84 15.7V22.9199C102.84 23.0899 102.78 23.24 102.65 23.37C102.52 23.49 102.37 23.5499 102.18 23.5499V23.5599Z" fill="#374F5A"/>
<path d="M114.77 25.3199C114.75 25.4099 114.73 25.5 114.71 25.58C114.69 25.64 114.67 25.7099 114.65 25.7799C114.63 25.8499 114.59 25.91 114.52 25.96C114.51 25.98 114.45 26.03 114.33 26.12C114.21 26.21 114 26.25 113.69 26.25H108.8C108.63 26.25 108.49 26.23 108.39 26.2C108.29 26.17 108.2 26.13 108.12 26.09C108.03 26.04 107.97 25.9899 107.93 25.9399C107.87 25.8799 107.82 25.81 107.8 25.75C107.78 25.68 107.76 25.6099 107.74 25.5399C107.72 25.4699 107.71 25.3899 107.71 25.3099V16.6599C107.71 16.5799 107.71 16.4999 107.74 16.4199C107.76 16.3599 107.78 16.29 107.8 16.23C107.82 16.16 107.86 16.0999 107.93 16.0399C107.94 16.0199 108.01 15.96 108.13 15.87C108.25 15.78 108.48 15.73 108.8 15.73H113.79C113.92 15.73 114.03 15.7599 114.14 15.7999C114.24 15.8399 114.32 15.8699 114.37 15.8999C114.45 15.9499 114.5 15.9999 114.55 16.0399C114.64 16.1399 114.7 16.2699 114.74 16.4199C114.77 16.4999 114.79 16.5799 114.79 16.6599V25.3099L114.77 25.3199ZM113.41 25.0699V16.9099H109.05V25.0699H113.41ZM118.54 21.5299V27.0299C118.54 27.2099 118.47 27.36 118.34 27.48C118.21 27.6 118.04 27.6599 117.85 27.6599C117.66 27.6599 117.5 27.6 117.37 27.48C117.24 27.36 117.18 27.2099 117.18 27.0299V15.7C117.18 15.52 117.24 15.36 117.37 15.24C117.5 15.12 117.66 15.0599 117.85 15.0599C118.04 15.0599 118.21 15.12 118.34 15.24C118.47 15.36 118.54 15.52 118.54 15.7V20.35H119.86C120.03 20.35 120.18 20.4099 120.31 20.5199C120.44 20.6299 120.5 20.7699 120.5 20.9299C120.5 21.0799 120.44 21.22 120.31 21.34C120.18 21.46 120.03 21.5199 119.86 21.5199H118.54V21.5299Z" fill="#374F5A"/>
<path d="M124.06 21.8999C123.89 21.8999 123.74 21.85 123.62 21.75C123.5 21.65 123.43 21.52 123.43 21.36C123.43 21.19 123.49 21.05 123.62 20.95C123.74 20.85 123.89 20.7999 124.06 20.7999H136.06C136.22 20.7999 136.37 20.85 136.49 20.95C136.62 21.05 136.68 21.19 136.68 21.36C136.68 21.52 136.62 21.65 136.49 21.75C136.36 21.85 136.22 21.8999 136.06 21.8999H124.06ZM128.08 20.0599C127.37 20.0599 126.79 19.9699 126.34 19.7999C125.89 19.6299 125.54 19.4099 125.29 19.1399C125.03 18.8999 124.86 18.63 124.76 18.34C124.66 18.05 124.61 17.7899 124.61 17.5499C124.61 17.3099 124.66 17.0499 124.75 16.7699C124.84 16.4799 125.01 16.2099 125.26 15.9399C125.51 15.6899 125.85 15.4799 126.3 15.3099C126.75 15.1399 127.31 15.0399 128 15.0299H132.11C132.8 15.0299 133.36 15.1299 133.8 15.3099C134.24 15.4799 134.58 15.7 134.83 15.97C135.08 16.23 135.25 16.4999 135.35 16.7799C135.45 17.0699 135.5 17.3199 135.5 17.5499C135.5 17.8099 135.45 18.08 135.35 18.36C135.25 18.65 135.07 18.9199 134.83 19.1699C134.57 19.4299 134.22 19.6399 133.78 19.8099C133.34 19.9799 132.79 20.0599 132.12 20.0599H128.09H128.08ZM129.85 27.8999C128.87 27.8999 128.05 27.84 127.38 27.72C126.71 27.6 126.17 27.4499 125.78 27.2699C125.37 27.0699 125.09 26.8299 124.92 26.5699C124.75 26.3099 124.67 26.0399 124.67 25.7699V25.49C124.67 25.35 124.7 25.22 124.77 25.1C124.84 24.98 124.93 24.8799 125.04 24.7999C125.15 24.7199 125.27 24.66 125.39 24.62C125.52 24.59 125.64 24.5699 125.74 24.5699H133.73V23.7599H125.28C125.12 23.7599 124.98 23.7 124.85 23.59C124.73 23.48 124.66 23.3399 124.66 23.1799C124.66 23.0199 124.72 22.8799 124.85 22.7699C124.97 22.6599 125.12 22.61 125.28 22.61H133.98C134.13 22.61 134.26 22.6299 134.37 22.6599C134.48 22.6999 134.57 22.7299 134.64 22.7599C134.73 22.7999 134.79 22.8499 134.83 22.9099C134.92 23.0099 134.98 23.1399 135.02 23.2899C135.04 23.3699 135.05 23.4499 135.05 23.5199V24.7799C135.05 25.0399 134.96 25.2499 134.77 25.4299C134.58 25.6099 134.32 25.7 133.99 25.7H125.99C125.99 26.03 126.34 26.28 127.04 26.45C127.74 26.62 128.68 26.71 129.86 26.71C130.07 26.71 130.36 26.7099 130.71 26.6899C131.06 26.6799 131.45 26.65 131.87 26.61C132.29 26.55 132.72 26.47 133.16 26.36C133.6 26.26 134.02 26.12 134.42 25.95C134.57 25.89 134.73 25.8699 134.89 25.8899C135.06 25.9099 135.18 25.98 135.25 26.1C135.35 26.23 135.37 26.3699 135.33 26.5099C135.29 26.6499 135.2 26.77 135.06 26.87C134.79 27.05 134.48 27.21 134.13 27.33C133.78 27.45 133.41 27.5599 133.04 27.6399C132.66 27.6999 132.29 27.7499 131.91 27.7899C131.53 27.8299 131.2 27.8599 130.91 27.8799C130.61 27.8899 130.37 27.8999 130.18 27.8999H129.87H129.85ZM128.06 16.21C127.62 16.21 127.26 16.25 126.99 16.34C126.72 16.43 126.5 16.5299 126.35 16.6499C126.2 16.7799 126.1 16.93 126.04 17.09C125.98 17.25 125.95 17.3999 125.95 17.5399C125.95 17.6899 125.98 17.8499 126.04 18.0099C126.1 18.1699 126.2 18.3099 126.35 18.4299C126.5 18.5499 126.71 18.66 126.99 18.74C127.26 18.83 127.62 18.87 128.06 18.87H132.05C132.48 18.87 132.83 18.83 133.11 18.74C133.38 18.65 133.6 18.5499 133.76 18.4299C133.91 18.3099 134.01 18.1699 134.07 18.0099C134.13 17.8499 134.16 17.6999 134.16 17.5399C134.16 17.3699 134.13 17.1999 134.06 17.0499C133.99 16.8999 133.88 16.7599 133.73 16.6399C133.56 16.5099 133.34 16.4 133.08 16.33C132.82 16.25 132.48 16.21 132.06 16.21H128.07H128.06Z" fill="#374F5A"/>
<path d="M140.26 22.6699C140.09 22.6699 139.94 22.61 139.82 22.49C139.7 22.37 139.64 22.24 139.64 22.08C139.64 21.91 139.7 21.7599 139.82 21.6499C139.94 21.5399 140.09 21.48 140.26 21.48H142.66V19.24C142.66 19.08 142.73 18.9299 142.86 18.7999C142.99 18.6699 143.16 18.61 143.35 18.61C143.52 18.61 143.67 18.6699 143.81 18.7999C143.94 18.9299 144.01 19.07 144.01 19.24V21.48H148.58C148.75 21.48 148.9 21.5399 149.03 21.6499C149.16 21.7599 149.22 21.91 149.22 22.08C149.22 22.23 149.16 22.37 149.03 22.49C148.9 22.61 148.75 22.6699 148.58 22.6699H140.26ZM146.38 20.83C146.19 20.78 146.05 20.6799 145.97 20.5399C145.89 20.3999 145.88 20.2599 145.93 20.1299C145.93 20.1299 145.97 19.99 146.06 19.75C146.15 19.5 146.23 19.2 146.3 18.84C146.39 18.47 146.46 18.0799 146.52 17.6599C146.58 17.2399 146.59 16.8599 146.56 16.5099H140.94C140.77 16.5099 140.62 16.45 140.49 16.34C140.36 16.23 140.3 16.0799 140.3 15.9099C140.3 15.7599 140.36 15.62 140.49 15.5C140.62 15.38 140.77 15.3199 140.94 15.3199H146.82C146.98 15.3199 147.11 15.33 147.21 15.37C147.31 15.4 147.4 15.44 147.48 15.48C147.57 15.52 147.63 15.5699 147.67 15.6299C147.76 15.7199 147.82 15.8499 147.86 16.0099C147.88 16.0899 147.89 16.17 147.89 16.24C147.93 16.58 147.94 16.9299 147.92 17.2999C147.9 17.6699 147.86 18.0299 147.81 18.3899C147.75 18.7599 147.67 19.12 147.58 19.48C147.49 19.84 147.38 20.17 147.27 20.46C147.19 20.65 147.07 20.78 146.9 20.84C146.73 20.9 146.56 20.89 146.38 20.84V20.83ZM146.56 27.8999C145.89 27.8999 145.26 27.85 144.65 27.75C144.04 27.65 143.51 27.48 143.05 27.24C142.59 27 142.22 26.6899 141.95 26.3099C141.68 25.9199 141.54 25.44 141.54 24.87V24.12C141.54 23.94 141.61 23.7799 141.74 23.6599C141.87 23.5399 142.03 23.48 142.22 23.48C142.41 23.48 142.58 23.5399 142.71 23.6599C142.84 23.7799 142.91 23.94 142.91 24.12V24.87C142.91 25.2 143 25.48 143.18 25.71C143.36 25.94 143.61 26.1399 143.95 26.2999C144.27 26.4399 144.66 26.55 145.1 26.62C145.54 26.69 146.04 26.73 146.57 26.73C146.76 26.73 147.03 26.7099 147.37 26.6799C147.71 26.6399 148.06 26.58 148.43 26.49C148.79 26.39 149.15 26.26 149.51 26.11C149.86 25.96 150.16 25.7799 150.4 25.5699C150.52 25.4599 150.67 25.3899 150.84 25.3799C151.02 25.3699 151.17 25.4099 151.3 25.5299C151.44 25.6399 151.52 25.7799 151.53 25.9399C151.55 26.0999 151.5 26.24 151.38 26.36C151.03 26.73 150.59 27.02 150.08 27.23C149.56 27.44 149.07 27.6 148.58 27.71C148.1 27.81 147.66 27.8699 147.28 27.8899C146.89 27.9099 146.66 27.9199 146.59 27.9199L146.56 27.8999ZM150.47 23.7899C150.28 23.7899 150.12 23.73 149.99 23.61C149.86 23.49 149.8 23.3299 149.8 23.1499V15.7C149.8 15.52 149.86 15.37 149.99 15.25C150.12 15.13 150.28 15.0699 150.47 15.0699C150.65 15.0699 150.81 15.13 150.95 15.25C151.09 15.37 151.16 15.52 151.16 15.7V18.2599H152.48C152.65 18.2599 152.8 18.3199 152.93 18.4399C153.06 18.5599 153.12 18.7 153.12 18.86C153.12 19.02 153.06 19.1599 152.93 19.2699C152.8 19.3799 152.65 19.4399 152.48 19.4399H151.16V23.1499C151.16 23.3299 151.09 23.49 150.95 23.61C150.81 23.73 150.65 23.7899 150.47 23.7899Z" fill="#374F5A"/>
<path d="M164.06 20.21C164.06 20.28 164.06 20.3599 164.03 20.4399C164 20.5099 163.97 20.5799 163.94 20.6499C163.91 20.7199 163.88 20.7799 163.84 20.8199C163.82 20.8499 163.75 20.91 163.63 20.99C163.51 21.07 163.31 21.1199 163.02 21.1299H158.29V23.9099C158.29 24.2399 158.39 24.5 158.6 24.71C158.81 24.92 159.05 25.08 159.34 25.2C159.63 25.32 159.94 25.41 160.27 25.45C160.6 25.5 160.89 25.5199 161.15 25.5199C161.24 25.5199 161.4 25.52 161.63 25.5C161.87 25.49 162.14 25.44 162.47 25.37C162.77 25.32 163.09 25.23 163.44 25.12C163.78 25 164.1 24.84 164.39 24.62C164.52 24.52 164.67 24.4499 164.85 24.4099C165.03 24.3799 165.18 24.4099 165.31 24.5299C165.44 24.6299 165.51 24.7699 165.52 24.9399C165.53 25.1099 165.48 25.2599 165.37 25.3899C165.08 25.7499 164.7 26.02 164.24 26.2C163.77 26.38 163.31 26.52 162.86 26.6C162.4 26.67 162 26.71 161.66 26.71C161.32 26.71 161.14 26.71 161.12 26.71C160.62 26.71 160.11 26.67 159.61 26.58C159.11 26.49 158.67 26.3399 158.28 26.1299C157.88 25.8999 157.56 25.61 157.31 25.25C157.06 24.89 156.94 24.4399 156.94 23.9099V20.8899C156.94 20.8099 156.95 20.7299 156.97 20.6399C156.99 20.5799 157.01 20.51 157.03 20.45C157.05 20.38 157.09 20.3199 157.16 20.2599C157.16 20.2399 157.24 20.18 157.36 20.09C157.48 20 157.71 19.95 158.03 19.95H162.7V16.9099H157.72C157.56 16.9099 157.41 16.85 157.28 16.74C157.15 16.63 157.08 16.49 157.08 16.33C157.08 16.17 157.15 16.0299 157.28 15.9099C157.41 15.7899 157.56 15.73 157.72 15.73H162.99C163.15 15.73 163.29 15.7599 163.4 15.7899C163.51 15.8199 163.6 15.8499 163.67 15.8799C163.73 15.9299 163.79 15.9799 163.85 16.0299C163.94 16.1399 164 16.2699 164.03 16.3999C164.06 16.5299 164.08 16.6099 164.08 16.6499V20.21H164.06ZM167.44 27.6599C167.25 27.6599 167.08 27.6 166.95 27.48C166.82 27.36 166.75 27.2099 166.75 27.0299V15.7C166.75 15.52 166.82 15.36 166.95 15.24C167.08 15.12 167.25 15.0599 167.44 15.0599C167.63 15.0599 167.79 15.12 167.92 15.24C168.05 15.36 168.11 15.52 168.11 15.7V27.0299C168.11 27.2099 168.05 27.36 167.92 27.48C167.79 27.6 167.63 27.6599 167.44 27.6599Z" fill="#374F5A"/>
<path d="M78.4101 38.2799L75.3001 41.3899C75.1701 41.5299 75.0101 41.6 74.8201 41.59C74.6301 41.59 74.4701 41.5199 74.3401 41.4199C74.2101 41.2999 74.1401 41.15 74.1401 40.98C74.1401 40.81 74.2001 40.6699 74.3201 40.5399L77.7301 37.12V31.5099C77.7301 31.3299 77.8001 31.1699 77.9301 31.0499C78.0601 30.9299 78.2301 30.87 78.4201 30.87C78.6001 30.87 78.7601 30.9299 78.9001 31.0499C79.0301 31.1699 79.1001 31.3299 79.1001 31.5099V37.1399L82.5001 40.5399C82.6301 40.6599 82.6901 40.81 82.6901 40.98C82.6901 41.15 82.6201 41.2899 82.4901 41.4199C82.3301 41.5399 82.1501 41.6 81.9701 41.6C81.7801 41.6 81.6301 41.5299 81.5101 41.3899L78.4201 38.2799H78.4101ZM85.4301 37.09V42.59C85.4301 42.77 85.3601 42.9199 85.2301 43.0399C85.1001 43.1599 84.9401 43.22 84.7601 43.22C84.5701 43.22 84.4101 43.1599 84.2801 43.0399C84.1501 42.9199 84.0901 42.77 84.0901 42.59V31.2599C84.0901 31.0799 84.1501 30.9199 84.2801 30.7999C84.4101 30.6799 84.5701 30.62 84.7601 30.62C84.9401 30.62 85.1001 30.6799 85.2301 30.7999C85.3601 30.9199 85.4301 31.0799 85.4301 31.2599V35.9099H86.7701C86.9301 35.9099 87.0801 35.97 87.2101 36.08C87.3401 36.19 87.4101 36.33 87.4101 36.49C87.4101 36.64 87.3401 36.7799 87.2101 36.8999C87.0701 37.0199 86.9301 37.08 86.7701 37.08H85.4301V37.09Z" fill="#374F5A"/>
<path d="M88.7501 41.98C88.5801 41.98 88.4301 41.9199 88.3101 41.7999C88.1901 41.6799 88.1201 41.5399 88.1201 41.3899C88.1201 41.2299 88.1801 41.09 88.3101 40.98C88.4301 40.87 88.5801 40.8099 88.7501 40.8099H91.9901V39.37H91.9401C91.0201 39.37 90.3101 39.0899 89.8201 38.5699C89.3301 38.0399 89.0901 37.2699 89.0901 36.2599C89.1001 35.2699 89.3501 34.51 89.8301 33.98C90.3101 33.45 91.0201 33.1899 91.9401 33.1799H93.3601C94.2701 33.1799 94.9801 33.4699 95.4701 34.0099C95.9601 34.5499 96.2001 35.32 96.1901 36.33C96.1801 37.33 95.9301 38.09 95.4301 38.62C94.9401 39.14 94.2401 39.3999 93.3501 39.3899V40.83H97.4201C97.5901 40.83 97.7401 40.89 97.8701 41C98.0001 41.11 98.0601 41.2499 98.0601 41.4099C98.0601 41.5599 98.0001 41.6999 97.8701 41.8199C97.7401 41.9399 97.5901 42 97.4201 42H88.7401L88.7501 41.98ZM88.9101 32.73C88.7401 32.73 88.5901 32.6699 88.4601 32.5499C88.3301 32.4299 88.2701 32.2899 88.2701 32.1299C88.2701 31.9699 88.3301 31.83 88.4601 31.72C88.5901 31.61 88.7401 31.5499 88.9101 31.5499H91.9701V30.6499C91.9701 30.4799 92.0401 30.33 92.1801 30.2C92.3201 30.08 92.4801 30.0199 92.6501 30.0199C92.8401 30.0199 93.0101 30.08 93.1401 30.2C93.2701 30.32 93.3401 30.4699 93.3401 30.6499V31.5499H96.4001C96.5801 31.5499 96.7401 31.61 96.8601 31.72C96.9801 31.83 97.0401 31.9699 97.0401 32.1299C97.0401 32.2899 96.9801 32.4299 96.8601 32.5499C96.7401 32.6699 96.5801 32.73 96.4001 32.73H88.9101ZM91.9401 34.33C91.8001 34.33 91.6401 34.3499 91.4701 34.3899C91.2901 34.4299 91.1301 34.5199 90.9801 34.6499C90.8201 34.7799 90.6901 34.98 90.5901 35.23C90.4901 35.49 90.4401 35.8299 90.4401 36.2599C90.4401 36.6899 90.4901 37.0199 90.5901 37.2799C90.6901 37.5399 90.8201 37.74 90.9801 37.87C91.1301 38 91.2901 38.0899 91.4701 38.1299C91.6501 38.1699 91.8001 38.2 91.9401 38.21H93.3401C93.4901 38.21 93.6501 38.1899 93.8301 38.1299C94.0101 38.0799 94.1801 37.99 94.3401 37.85C94.4801 37.72 94.6001 37.5199 94.7101 37.2699C94.8201 37.0099 94.8701 36.6899 94.8701 36.2899C94.8701 35.8499 94.8201 35.5 94.7101 35.24C94.6001 34.98 94.4701 34.7799 94.3201 34.6499C94.1601 34.5199 93.9901 34.4299 93.8101 34.3899C93.6301 34.3499 93.4701 34.33 93.3401 34.33H91.9401ZM99.3101 43.22C99.1201 43.22 98.9601 43.1599 98.8301 43.0399C98.7001 42.9199 98.6401 42.76 98.6401 42.58V31.25C98.6401 31.07 98.7001 30.9199 98.8301 30.7999C98.9601 30.6799 99.1201 30.62 99.3101 30.62C99.4901 30.62 99.6501 30.6799 99.7901 30.7999C99.9301 30.9199 100 31.07 100 31.25V42.58C100 42.76 99.9301 42.9199 99.7901 43.0399C99.6501 43.1599 99.4901 43.22 99.3101 43.22Z" fill="#374F5A"/>
<path d="M105.9 34.9399L102.76 37.3199C102.62 37.4299 102.46 37.49 102.27 37.48C102.08 37.48 101.93 37.43 101.81 37.33C101.68 37.21 101.62 37.05 101.62 36.86C101.62 36.67 101.7 36.5099 101.86 36.3799L105.21 33.7699V32.0499H102.28C102.11 32.0499 101.96 31.9899 101.84 31.8799C101.72 31.7699 101.66 31.62 101.66 31.45C101.66 31.3 101.72 31.1599 101.84 31.0399C101.96 30.9199 102.11 30.86 102.28 30.86H109.51C109.68 30.86 109.83 30.9199 109.96 31.0399C110.09 31.1599 110.15 31.29 110.15 31.45C110.15 31.62 110.09 31.7699 109.96 31.8799C109.83 31.9899 109.68 32.0499 109.51 32.0499H106.58V33.7799L109.98 36.25C110.12 36.35 110.18 36.4999 110.17 36.6799C110.16 36.8599 110.09 37.0199 109.96 37.1399C109.82 37.2599 109.67 37.3199 109.5 37.2999C109.33 37.2899 109.16 37.23 108.99 37.12L105.9 34.9299V34.9399ZM112.08 39.8799H103.9C103.72 39.8799 103.56 39.82 103.44 39.71C103.32 39.6 103.25 39.4599 103.25 39.2999C103.25 39.1399 103.31 38.9999 103.44 38.8799C103.56 38.7599 103.72 38.7 103.9 38.7H112.16C112.34 38.7 112.54 38.7199 112.74 38.7599C112.94 38.7999 113.1 38.8899 113.21 39.0199C113.3 39.1199 113.36 39.2499 113.4 39.3999C113.42 39.4799 113.43 39.5599 113.43 39.6499V42.8899C113.43 43.0699 113.36 43.22 113.23 43.34C113.1 43.46 112.94 43.5199 112.75 43.5199C112.56 43.5199 112.41 43.46 112.28 43.34C112.15 43.22 112.08 43.0699 112.08 42.8899V39.8799ZM112.77 37.9299C112.58 37.9299 112.41 37.87 112.28 37.75C112.15 37.63 112.08 37.4799 112.08 37.3099V34.2999H109.15C108.99 34.2999 108.84 34.24 108.71 34.12C108.58 34 108.52 33.87 108.52 33.71C108.52 33.54 108.58 33.3899 108.71 33.2799C108.84 33.1699 108.98 33.11 109.15 33.11H112.08V31.25C112.08 31.07 112.15 30.9099 112.28 30.7899C112.41 30.6699 112.58 30.61 112.77 30.61C112.95 30.61 113.11 30.6699 113.24 30.7899C113.37 30.9099 113.43 31.07 113.43 31.25V37.2899C113.43 37.4599 113.37 37.61 113.24 37.73C113.11 37.85 112.96 37.9099 112.77 37.9099V37.9299Z" fill="#374F5A"/>
<path d="M115.58 32.4199C115.4 32.4199 115.24 32.3699 115.12 32.2599C115 32.1499 114.93 32.02 114.93 31.85C114.93 31.68 114.99 31.5499 115.12 31.4399C115.24 31.3299 115.4 31.2699 115.58 31.2699H118.59V30.6699C118.59 30.4899 118.66 30.33 118.79 30.21C118.92 30.09 119.09 30.0299 119.28 30.0299C119.46 30.0299 119.62 30.09 119.75 30.21C119.88 30.33 119.94 30.4899 119.94 30.6699V31.2699H122.97C123.14 31.2699 123.29 31.3299 123.42 31.4399C123.55 31.5499 123.61 31.69 123.61 31.85C123.61 32.01 123.55 32.1499 123.42 32.2599C123.29 32.3699 123.14 32.4199 122.97 32.4199H115.58ZM126.32 37.9299C126.14 37.9299 125.98 37.8699 125.84 37.7599C125.7 37.6499 125.63 37.4999 125.63 37.3099V37.2H122.31C121.99 37.57 121.56 37.84 121.02 38C120.48 38.17 119.9 38.25 119.28 38.25C118.78 38.25 118.31 38.2 117.88 38.1C117.45 38 117.07 37.8399 116.75 37.6299C116.44 37.4299 116.19 37.17 116.01 36.87C115.83 36.57 115.74 36.2199 115.74 35.8199V35.1399C115.74 34.7199 115.84 34.3599 116.05 34.0599C116.25 33.7599 116.53 33.5099 116.87 33.3199C117.2 33.1399 117.58 32.9999 118.01 32.9099C118.43 32.8199 118.86 32.7699 119.29 32.7699C119.86 32.7699 120.37 32.84 120.83 32.97C121.29 33.1 121.67 33.2799 121.98 33.5099C122.08 33.4899 122.15 33.48 122.21 33.48H125.64V31.2599C125.64 31.0799 125.71 30.9199 125.85 30.7999C125.99 30.6799 126.15 30.62 126.33 30.62C126.52 30.62 126.68 30.6799 126.81 30.7999C126.94 30.9199 127 31.0799 127 31.2599V37.2999C127 37.4699 126.94 37.62 126.81 37.74C126.68 37.86 126.52 37.9199 126.33 37.9199L126.32 37.9299ZM117.99 43.34C117.69 43.34 117.45 43.26 117.27 43.09C117.09 42.93 117 42.7099 117 42.4299V38.98C117 38.82 117.07 38.6799 117.2 38.5599C117.33 38.4399 117.49 38.3799 117.66 38.3799C117.83 38.3799 117.98 38.4399 118.12 38.5599C118.25 38.6799 118.32 38.82 118.32 38.98V39.85H125.66V38.98C125.66 38.82 125.73 38.6799 125.86 38.5599C125.99 38.4399 126.15 38.3799 126.32 38.3799C126.49 38.3799 126.65 38.4399 126.79 38.5599C126.93 38.6799 127 38.82 127 38.98V42.45C126.95 43.04 126.6 43.34 125.97 43.34H118H117.99ZM121.47 35.1499C121.47 34.9199 121.4 34.7199 121.26 34.5599C121.12 34.3999 120.94 34.2699 120.73 34.1699C120.5 34.0699 120.26 33.99 120 33.95C119.74 33.9 119.49 33.8799 119.25 33.8799C119.01 33.8799 118.75 33.91 118.49 33.96C118.23 34.02 118 34.0899 117.8 34.1799C117.58 34.2799 117.41 34.42 117.28 34.58C117.14 34.74 117.08 34.9299 117.08 35.1499V35.84C117.08 36.09 117.15 36.29 117.3 36.46C117.44 36.63 117.62 36.76 117.82 36.87C118.03 36.97 118.27 37.05 118.52 37.09C118.77 37.14 119.02 37.1599 119.25 37.1599C119.48 37.1599 119.74 37.14 120 37.1C120.26 37.06 120.51 36.9899 120.73 36.8899C120.94 36.7999 121.12 36.67 121.26 36.5C121.4 36.33 121.47 36.11 121.47 35.85V35.1599V35.1499ZM118.31 42.1599H125.65V41.0299H118.31V42.1599ZM122.82 35.1499V35.8099C122.82 35.9199 122.81 35.9999 122.79 36.0399H125.62V34.6299H122.74C122.79 34.7699 122.82 34.9499 122.82 35.1499Z" fill="#374F5A"/>
<path d="M129.22 38.1599C129.05 38.1599 128.9 38.1 128.78 37.99C128.66 37.88 128.59 37.7299 128.59 37.5599C128.59 37.3999 128.65 37.2599 128.78 37.1499C128.9 37.0399 129.05 36.98 129.22 36.98H134.53V35.95C133.11 35.89 132 35.64 131.18 35.21C130.36 34.77 129.96 34.1599 129.96 33.3799V31.8199C129.96 31.7399 129.98 31.66 130.01 31.58C130.03 31.51 130.05 31.44 130.07 31.37C130.09 31.3 130.13 31.2399 130.2 31.1899C130.21 31.1599 130.28 31.0999 130.4 31.0099C130.52 30.9199 130.75 30.8799 131.07 30.8799H139.65C139.83 30.8799 139.99 30.9399 140.11 31.0599C140.23 31.1799 140.3 31.31 140.3 31.47C140.3 31.64 140.24 31.7899 140.11 31.8999C139.99 32.0099 139.83 32.0699 139.65 32.0699H131.33V33.3899C131.33 33.4999 131.39 33.6399 131.51 33.7899C131.63 33.9399 131.85 34.1 132.16 34.25C132.45 34.4 132.85 34.5299 133.35 34.6399C133.85 34.7499 134.49 34.7999 135.25 34.7999C135.86 34.7799 136.39 34.7299 136.84 34.6599C137.28 34.6099 137.74 34.5299 138.22 34.4099C138.7 34.2999 139.13 34.1399 139.49 33.9399C139.63 33.8599 139.79 33.82 139.97 33.84C140.15 33.85 140.28 33.9299 140.38 34.0599C140.48 34.1799 140.52 34.3299 140.5 34.5099C140.48 34.6899 140.41 34.8199 140.27 34.9099C139.97 35.0899 139.62 35.2499 139.22 35.3899C138.82 35.5199 138.43 35.62 138.03 35.7C137.61 35.78 137.21 35.8499 136.84 35.8899C136.46 35.9399 136.15 35.96 135.89 35.97V37H141.2C141.36 37 141.51 37.0599 141.63 37.1699C141.76 37.2799 141.82 37.42 141.82 37.58C141.82 37.75 141.76 37.8999 141.63 38.0099C141.5 38.1199 141.36 38.1799 141.2 38.1799H129.2L129.22 38.1599ZM133.4 43.34C132.69 43.34 132.12 43.26 131.69 43.11C131.26 42.96 130.93 42.7699 130.72 42.5399C130.48 42.3199 130.33 42.0699 130.25 41.7999C130.17 41.5299 130.13 41.2799 130.13 41.0599C130.13 40.8399 130.16 40.5899 130.23 40.3199C130.3 40.0499 130.45 39.7999 130.69 39.5699C130.92 39.3499 131.24 39.1599 131.66 39.0099C132.08 38.8599 132.64 38.7799 133.33 38.7699H137.07C137.77 38.7699 138.33 38.8599 138.74 39.0099C139.16 39.1599 139.49 39.3399 139.72 39.5699C139.95 39.8099 140.1 40.0599 140.18 40.3199C140.26 40.5899 140.3 40.8299 140.3 41.0599C140.3 41.3199 140.26 41.58 140.17 41.84C140.08 42.11 139.93 42.35 139.7 42.58C139.46 42.79 139.14 42.97 138.72 43.12C138.3 43.26 137.75 43.34 137.06 43.35H133.41L133.4 43.34ZM131.39 41.0599C131.39 41.1999 131.41 41.34 131.45 41.47C131.49 41.6 131.58 41.7199 131.72 41.8199C131.87 41.9199 132.07 41.9999 132.33 42.0699C132.59 42.1299 132.94 42.1599 133.39 42.1599H136.98C137.42 42.1599 137.77 42.13 138.03 42.08C138.29 42.03 138.49 41.95 138.63 41.86C138.78 41.76 138.88 41.6399 138.92 41.5099C138.96 41.3799 138.98 41.2299 138.98 41.0699C138.98 40.9199 138.96 40.7699 138.92 40.6299C138.88 40.4899 138.78 40.3699 138.63 40.2699C138.48 40.1799 138.27 40.0999 138.01 40.0499C137.75 39.9899 137.4 39.97 136.97 39.97H133.38C132.93 39.97 132.58 39.9999 132.32 40.0599C132.06 40.1199 131.86 40.1999 131.71 40.3099C131.57 40.3999 131.48 40.5199 131.44 40.6499C131.4 40.7899 131.38 40.9299 131.38 41.0699L131.39 41.0599Z" fill="#374F5A"/>
<path d="M143.35 42.61C143.18 42.61 143.03 42.5499 142.91 42.4399C142.79 42.3299 142.72 42.1899 142.72 42.0299C142.72 41.8599 142.78 41.71 142.91 41.6C143.03 41.49 143.18 41.4299 143.35 41.4299H148.66V38.3899C148.66 38.2199 148.72 38.0699 148.85 37.9399C148.98 37.8199 149.14 37.7599 149.33 37.7599C149.52 37.7599 149.69 37.8199 149.82 37.9399C149.95 38.0599 150.02 38.2099 150.02 38.3899V41.4299H155.33C155.49 41.4299 155.64 41.49 155.76 41.6C155.89 41.71 155.95 41.8599 155.95 42.0299C155.95 42.1899 155.89 42.3299 155.76 42.4399C155.63 42.5499 155.49 42.61 155.33 42.61H143.33H143.35ZM149.33 35.4199L144.87 38.5C144.72 38.59 144.56 38.63 144.4 38.62C144.23 38.62 144.1 38.53 143.99 38.37C143.89 38.25 143.85 38.0999 143.87 37.9399C143.89 37.7799 143.96 37.6399 144.1 37.5399L148.66 34.35V32.2799H144.79C144.62 32.2799 144.47 32.22 144.35 32.11C144.23 32 144.17 31.86 144.17 31.7C144.17 31.54 144.23 31.3999 144.35 31.2799C144.47 31.1599 144.62 31.1 144.79 31.1H153.95C154.11 31.1 154.26 31.1599 154.39 31.2799C154.52 31.3999 154.59 31.54 154.59 31.7C154.59 31.86 154.52 32 154.39 32.11C154.26 32.22 154.11 32.2799 153.95 32.2799H150.02V34.35L154.56 37.5399C154.7 37.6299 154.78 37.7599 154.8 37.9299C154.82 38.0999 154.78 38.24 154.69 38.37C154.59 38.5 154.45 38.58 154.26 38.6C154.07 38.62 153.91 38.59 153.79 38.49L149.33 35.4099V35.4199Z" fill="#374F5A"/>
<path d="M157.41 32.4199C157.23 32.4199 157.07 32.3699 156.95 32.2599C156.83 32.1499 156.77 32.02 156.77 31.85C156.77 31.68 156.83 31.5499 156.95 31.4399C157.07 31.3299 157.23 31.2699 157.41 31.2699H160.42V30.6699C160.42 30.4899 160.49 30.33 160.62 30.21C160.75 30.09 160.92 30.0299 161.11 30.0299C161.29 30.0299 161.45 30.09 161.58 30.21C161.71 30.33 161.77 30.4899 161.77 30.6699V31.2699H164.8C164.97 31.2699 165.12 31.3299 165.25 31.4399C165.38 31.5499 165.44 31.69 165.44 31.85C165.44 32.01 165.38 32.1499 165.25 32.2599C165.12 32.3699 164.97 32.4199 164.8 32.4199H157.41ZM161.11 32.7799C161.64 32.7799 162.12 32.84 162.55 32.95C162.98 33.06 163.36 33.2299 163.69 33.4399C164 33.6499 164.24 33.91 164.41 34.2C164.58 34.49 164.66 34.8199 164.66 35.1699V35.83C164.66 36.26 164.56 36.6199 164.36 36.9299C164.16 37.2399 163.91 37.4799 163.6 37.6899C163.27 37.8899 162.88 38.0399 162.45 38.1399C162.02 38.2299 161.57 38.2799 161.12 38.2799C160.62 38.2799 160.15 38.2299 159.72 38.1299C159.29 38.0299 158.92 37.8699 158.59 37.6599C158.28 37.4599 158.03 37.1999 157.85 36.8999C157.67 36.5999 157.58 36.25 157.58 35.85V35.1699C157.58 34.7499 157.68 34.39 157.89 34.09C158.09 33.79 158.37 33.54 158.71 33.35C159.04 33.17 159.42 33.0299 159.85 32.9399C160.27 32.8499 160.7 32.7999 161.13 32.7999L161.11 32.7799ZM159.12 43.34C158.82 43.34 158.58 43.26 158.39 43.09C158.21 42.93 158.12 42.7099 158.12 42.4299V38.98C158.12 38.82 158.19 38.6799 158.32 38.5599C158.45 38.4399 158.61 38.3799 158.78 38.3799C158.95 38.3799 159.1 38.4399 159.24 38.5599C159.37 38.6799 159.44 38.82 159.44 38.98V39.85H166.78V38.98C166.78 38.82 166.85 38.6799 166.98 38.5599C167.11 38.4399 167.27 38.3799 167.44 38.3799C167.61 38.3799 167.77 38.4399 167.91 38.5599C168.05 38.6799 168.12 38.82 168.12 38.98V42.45C168.07 43.04 167.72 43.34 167.09 43.34H159.12ZM163.3 35.1499C163.3 34.9199 163.23 34.7199 163.09 34.5599C162.95 34.3999 162.77 34.2699 162.56 34.1699C162.33 34.0699 162.09 33.99 161.83 33.95C161.57 33.9 161.32 33.8799 161.08 33.8799C160.83 33.8799 160.58 33.91 160.32 33.96C160.06 34.02 159.83 34.0899 159.63 34.1799C159.42 34.2799 159.24 34.42 159.11 34.58C158.98 34.74 158.91 34.9299 158.91 35.1499V35.84C158.91 36.09 158.98 36.29 159.13 36.46C159.28 36.63 159.45 36.76 159.65 36.87C159.86 36.97 160.1 37.05 160.35 37.09C160.6 37.14 160.85 37.1599 161.08 37.1599C161.31 37.1599 161.57 37.14 161.83 37.1C162.09 37.06 162.34 36.9899 162.56 36.8899C162.77 36.7999 162.95 36.67 163.09 36.5C163.23 36.33 163.3 36.11 163.3 35.85V35.1599V35.1499ZM159.44 42.1599H166.78V41.0299H159.44V42.1599ZM168.12 34.7899V37.2999C168.12 37.4699 168.05 37.62 167.92 37.74C167.79 37.86 167.62 37.9199 167.43 37.9199C167.25 37.9199 167.09 37.86 166.95 37.74C166.82 37.62 166.75 37.4699 166.75 37.2999V31.2599C166.75 31.0799 166.82 30.9199 166.95 30.7999C167.08 30.6799 167.24 30.62 167.43 30.62C167.62 30.62 167.79 30.6799 167.92 30.7999C168.05 30.9199 168.12 31.0799 168.12 31.2599V33.61H169.46C169.62 33.61 169.77 33.6699 169.89 33.7899C170.02 33.9099 170.08 34.04 170.08 34.2C170.08 34.37 170.02 34.5199 169.89 34.6299C169.76 34.7399 169.62 34.7999 169.46 34.7999H168.12V34.7899Z" fill="#374F5A"/>
</svg>
